<svg className="footer__widget--info__icon" width=22 height=22 viewBox="0 0 22 22" fill="none"
    xmlns="http://www.w3.org/2000/svg">
    <path
        d="M2.51763 19.6352C2.20325 19.6334 1.90222 19.4974 1.67992 19.2567C1.45762 19.016 1.33199 18.69 1.33032 18.3496V7.77586C1.332 7.07078 1.59142 6.39509 2.05186 5.89652C2.5123 5.39795 3.13632 5.11705 3.78748 5.11523H15.3749C16.0271 5.11523 16.6528 5.39533 17.1146 5.89409C17.5764 6.39286 17.8367 7.06959 17.8384 7.77586V14.8227C17.8384 15.529 17.5797 16.2065 17.1191 16.7065C16.6584 17.2066 16.0335 17.4884 15.3812 17.4902H5.71765C5.6079 17.4912 5.50123 17.5297 5.41289 17.6002L3.2351 19.3809C3.02744 19.547 2.77583 19.6362 2.51763 19.6352ZM3.78748 6.49023C3.4731 6.49204 3.17207 6.62807 2.94977 6.86878C2.72747 7.10949 2.60184 7.43545 2.60017 7.77586V18.1777L4.65098 16.5002C4.95955 16.2521 5.33329 16.1172 5.71765 16.1152H15.3749C15.6914 16.1152 15.995 15.9791 16.2189 15.7367C16.4428 15.4943 16.5685 15.1655 16.5685 14.8227V7.77586C16.5669 7.43545 16.4412 7.10949 16.2189 6.86878C15.9966 6.62807 15.6956 6.49204 15.3812 6.49023H3.78748Z"
        fill="currentColor" />
    <path
        d="M12.0855 12.0522C12.436 12.0522 12.7202 11.7444 12.7202 11.3647C12.7202 10.9851 12.436 10.6772 12.0855 10.6772C11.7351 10.6772 11.4509 10.9851 11.4509 11.3647C11.4509 11.7444 11.7351 12.0522 12.0855 12.0522Z"
        fill="currentColor" />
    <path
        d="M9.62168 12.0522C9.97216 12.0522 10.2563 11.7444 10.2563 11.3647C10.2563 10.9851 9.97216 10.6772 9.62168 10.6772C9.27119 10.6772 8.98706 10.9851 8.98706 11.3647C8.98706 11.7444 9.27119 12.0522 9.62168 12.0522Z"
        fill="currentColor" />
    <path
        d="M7.08237 12.0522C7.43286 12.0522 7.71698 11.7444 7.71698 11.3647C7.71698 10.9851 7.43286 10.6772 7.08237 10.6772C6.73188 10.6772 6.44775 10.9851 6.44775 11.3647C6.44775 11.7444 6.73188 12.0522 7.08237 12.0522Z"
        fill="currentColor" />
    <path
        d="M19.7433 12.6777C19.5749 12.6777 19.4134 12.6053 19.2944 12.4764C19.1753 12.3474 19.1084 12.1726 19.1084 11.9902V5.02586C19.1067 4.68545 18.9811 4.35949 18.7588 4.11878C18.5365 3.87807 18.2355 3.74204 17.9211 3.74023H5.14005C4.97166 3.74023 4.81016 3.6678 4.69109 3.53887C4.57202 3.40994 4.50513 3.23507 4.50513 3.05273C4.50513 2.8704 4.57202 2.69553 4.69109 2.5666C4.81016 2.43767 4.97166 2.36523 5.14005 2.36523H17.9211C18.5723 2.36705 19.1963 2.64795 19.6567 3.14652C20.1172 3.64509 20.3766 4.32078 20.3782 5.02586V11.9902C20.3782 12.1726 20.3114 12.3474 20.1923 12.4764C20.0732 12.6053 19.9117 12.6777 19.7433 12.6777Z"
        fill="currentColor" />
</svg>