<svg className="footer__widget--info__icon" width=22 height=23 viewBox="0 0 22 23" fill="none"
    xmlns="http://www.w3.org/2000/svg">
    <path
        d="M11.3641 0C6.97117 0 3.39868 3.86831 3.39868 8.625C3.39868 14.6036 10.5888 22.4581 10.8941 22.7901C11.0242 22.9296 11.1942 23 11.3641 23C11.534 23 11.704 22.9296 11.8341 22.7901C12.1394 22.4581 19.3295 14.6036 19.3295 8.625C19.3295 3.86831 15.757 0 11.3641 0ZM11.3641 21.2419C9.77898 19.4048 4.72625 13.1919 4.72625 8.625C4.72625 4.66181 7.70399 1.4375 11.3641 1.4375C15.0242 1.4375 18.002 4.66181 18.002 8.625C18.002 13.1876 12.9492 19.4048 11.3641 21.2419Z"
        fill="#F23B3B" />
    <path
        d="M11.3638 4.3125C9.16801 4.3125 7.3811 6.24737 7.3811 8.625C7.3811 11.0026 9.16801 12.9375 11.3638 12.9375C13.5596 12.9375 15.3465 11.0026 15.3465 8.625C15.3465 6.24737 13.5596 4.3125 11.3638 4.3125ZM11.3638 11.5C9.8995 11.5 8.70867 10.2106 8.70867 8.625C8.70867 7.03944 9.8995 5.75 11.3638 5.75C12.8281 5.75 14.019 7.03944 14.019 8.625C14.019 10.2106 12.8281 11.5 11.3638 11.5Z"
        fill="#F23B3B" />
</svg>