<svg width=14 height=16 viewBox="0 0 15 18" fill="none" xmlns="http://www.w3.org/2000/svg">
    <path
        d="M14.6713 6.71093C14.6764 7.71873 14.5406 8.65694 14.2638 9.52555C14.0104 10.394 13.6393 11.146 13.1503 11.7813C12.6612 12.3932 12.0778 12.8883 11.4001 13.2668C10.7222 13.6218 9.97304 13.7897 9.15262 13.7705C8.87149 13.7954 8.59012 13.7734 8.30852 13.7045C8.05023 13.6121 7.80366 13.5196 7.56881 13.427C7.35727 13.3109 7.16906 13.1713 7.00416 13.008C6.83926 12.8448 6.70957 12.6931 6.61511 12.553C6.47736 13.1162 6.36257 13.5856 6.27074 13.961C6.17891 14.3365 6.09838 14.6299 6.02915 14.8412C5.98323 15.0289 5.94879 15.1697 5.92584 15.2636C5.9262 15.3339 5.92632 15.3573 5.9262 15.3339C5.85696 15.5452 5.78767 15.7448 5.71832 15.9326C5.64897 16.1205 5.56796 16.3201 5.47529 16.5315C5.3825 16.7195 5.27793 16.8958 5.16158 17.0605C5.06867 17.225 4.97576 17.3896 4.88285 17.5541C4.60256 17.743 4.38033 17.8262 4.21615 17.8036C4.07553 17.8043 3.95804 17.7463 3.86369 17.6296C3.79278 17.5128 3.74531 17.3959 3.72127 17.2788C3.69736 17.1852 3.68534 17.1266 3.68522 17.1032C3.66094 16.9393 3.64832 16.7635 3.64736 16.576C3.64629 16.3651 3.64527 16.1659 3.64431 15.9784C3.66667 15.7673 3.68902 15.5563 3.71138 15.3452C3.75718 15.1341 3.80309 14.9463 3.84913 14.782C3.84901 14.7586 3.86037 14.6882 3.8832 14.5709C3.92936 14.43 3.99829 14.1602 4.09 13.7612C4.18159 13.3389 4.30756 12.764 4.46791 12.0366C4.62825 11.3092 4.84599 10.3472 5.12112 9.15044C5.05009 9.01017 4.9906 8.8347 4.94264 8.624C4.89469 8.41331 4.85863 8.23771 4.83448 8.0972C4.8102 7.93326 4.79776 7.7927 4.79716 7.67551C4.79657 7.55833 4.79633 7.51145 4.79645 7.53489C4.79441 7.13646 4.83948 6.78466 4.93167 6.4795C5.04718 6.15078 5.18637 5.86881 5.34923 5.6336C5.53541 5.37483 5.74538 5.18626 5.97915 5.06787C6.23624 4.92593 6.49363 4.84258 6.75132 4.81782C6.98581 4.84006 7.18527 4.88592 7.34969 4.95539C7.53755 5.02474 7.69049 5.14115 7.80851 5.30461C7.92654 5.46807 8.00947 5.64343 8.0573 5.83069C8.12845 5.99439 8.16463 6.19342 8.16583 6.4278C8.16691 6.63873 8.13307 6.89672 8.06432 7.20176C7.99544 7.48337 7.91491 7.77675 7.82272 8.08192C7.73053 8.38708 7.62674 8.71574 7.51135 9.0679C7.41928 9.3965 7.33887 9.71332 7.27012 10.0184C7.20137 10.3234 7.19103 10.593 7.2391 10.8271C7.31049 11.0377 7.41704 11.2481 7.55874 11.4583C7.72376 11.645 7.92369 11.7846 8.15854 11.8771C8.3934 11.9697 8.63979 12.027 8.89771 12.0491C9.38978 12.0232 9.8343 11.8686 10.2313 11.5853C10.6283 11.302 10.9661 10.9018 11.2447 10.3848C11.5467 9.86758 11.7665 9.29223 11.9038 8.65871C12.0646 8.00163 12.1429 7.28637 12.139 6.51294C12.1362 5.97389 12.0398 5.45875 11.8498 4.96753C11.6598 4.47631 11.3765 4.06759 10.9998 3.74139C10.6464 3.39163 10.1997 3.11266 9.65954 2.90449C9.14285 2.69619 8.533 2.60556 7.83 2.63259C7.05646 2.61311 6.354 2.74561 5.72263 3.03009C5.11471 3.31446 4.58923 3.68043 4.1462 4.12802C3.70317 4.5756 3.36603 5.10467 3.13477 5.71524C2.9034 6.30237 2.78933 6.91234 2.79257 7.54514C2.79388 7.80295 2.80674 8.02554 2.83114 8.21292C2.87885 8.37674 2.92662 8.55228 2.97446 8.73954C3.04561 8.90324 3.1167 9.05522 3.18773 9.19548C3.28208 9.31219 3.38827 9.45227 3.50629 9.61574C3.55329 9.63893 3.58868 9.68563 3.61248 9.75582C3.63615 9.80257 3.64805 9.83767 3.64817 9.86111C3.67173 9.88442 3.68369 9.93124 3.68405 10.0015C3.68429 10.0484 3.67281 10.0954 3.64961 10.1424C3.62653 10.2128 3.60346 10.2832 3.58038 10.3536C3.58062 10.4005 3.56926 10.4709 3.5463 10.5648C3.52334 10.6586 3.50033 10.7408 3.47725 10.8112C3.45405 10.8582 3.44263 10.9169 3.44299 10.9872C3.4198 11.0342 3.38494 11.0929 3.33842 11.1635C3.31523 11.2105 3.28025 11.2458 3.2335 11.2695C3.18662 11.2697 3.13981 11.2817 3.09305 11.3054C3.04618 11.3056 2.98747 11.2825 2.91691 11.236C2.56464 11.0971 2.24722 10.8995 1.96465 10.6432C1.7054 10.3632 1.49291 10.0596 1.32717 9.73235C1.16143 9.40507 1.03061 9.03073 0.934703 8.60934C0.838796 8.18795 0.789764 7.76633 0.787606 7.34446C0.78377 6.59447 0.932275 5.8437 1.23312 5.09215C1.55741 4.34048 2.02261 3.64668 2.62874 3.01076C3.23487 2.37484 3.99401 1.86705 4.90614 1.48737C5.81815 1.08427 6.88346 0.867877 8.10208 0.838206C9.08656 0.856608 9.97807 1.02783 10.7766 1.35188C11.5985 1.65236 12.2921 2.08241 12.8575 2.64203C13.4228 3.20165 13.8597 3.83223 14.1679 4.53379C14.4995 5.21179 14.6673 5.9375 14.6713 6.71093Z"
        fill="currentColor" />
</svg>